%TF.GenerationSoftware,Altium Limited,Altium Designer,23.6.0 (18)*%
G04 Layer_Color=32896*
%FSLAX45Y45*%
%MOMM*%
%TF.SameCoordinates,BE964043-2EFE-40DF-B488-D83AE96C0F84*%
%TF.FilePolarity,Positive*%
%TF.FileFunction,Legend,Bot*%
%TF.Part,Single*%
G01*
G75*
%TA.AperFunction,NonConductor*%
%ADD24C,0.25400*%
%ADD25C,0.20000*%
%ADD27C,0.15240*%
G36*
X2282421Y2427450D02*
X2284409D01*
Y2425461D01*
X2286398D01*
Y2423473D01*
X2288386D01*
Y2421484D01*
X2290375D01*
Y2419496D01*
X2292363D01*
Y2417507D01*
X2294352D01*
Y2415519D01*
X2296340D01*
Y2413530D01*
X2298329D01*
Y2411542D01*
X2300317D01*
Y2409553D01*
X2302306D01*
Y2407565D01*
X2304294D01*
Y2405576D01*
X2306283D01*
Y2403588D01*
X2308271D01*
Y2401599D01*
X2310260D01*
Y2399611D01*
X2312248D01*
Y2397622D01*
X2314237D01*
Y2395634D01*
X2316225D01*
Y2393645D01*
X2318214D01*
Y2391657D01*
X2320203D01*
Y2389668D01*
X2322191D01*
Y2387680D01*
X2324180D01*
Y2385691D01*
X2326168D01*
Y2383703D01*
X2328157D01*
Y2381714D01*
X2330145D01*
Y2379725D01*
X2332134D01*
Y2377737D01*
X2334122D01*
Y2375748D01*
X2336111D01*
Y2373760D01*
X2338099D01*
Y2371771D01*
X2340088D01*
Y2369783D01*
X2342076D01*
Y2367794D01*
X2344065D01*
Y2365806D01*
X2346053D01*
Y2363817D01*
X2348042D01*
Y2361829D01*
X2350030D01*
Y2359840D01*
X2352019D01*
Y2357852D01*
X2354007D01*
Y2355863D01*
X2355996D01*
Y2353875D01*
X2357984D01*
Y2351886D01*
X2359973D01*
Y2349898D01*
X2361961D01*
Y2347909D01*
X2363950D01*
Y2345921D01*
X2365938D01*
Y2343932D01*
X2367927D01*
Y2341944D01*
X2369916D01*
Y2339955D01*
X2371904D01*
Y2337967D01*
X2373892D01*
Y2335978D01*
X2375881D01*
Y2333989D01*
X2377870D01*
Y2332001D01*
X2379858D01*
Y2330013D01*
X2381847D01*
Y2328024D01*
X2383835D01*
Y2326035D01*
X2385824D01*
Y2324047D01*
X2387812D01*
Y2322058D01*
X2389801D01*
Y2320070D01*
X2391789D01*
Y2318081D01*
X2393778D01*
Y2316093D01*
X2395766D01*
Y2314104D01*
X2397755D01*
Y2312116D01*
X2399743D01*
Y2310127D01*
X2401732D01*
Y2308139D01*
X2403720D01*
Y2306150D01*
X2405709D01*
Y2304162D01*
X2407697D01*
Y2302173D01*
X2411674D01*
Y2298196D01*
X2413663D01*
Y2111276D01*
X2411674D01*
Y2109287D01*
X2409686D01*
Y2107299D01*
X2407697D01*
Y2105310D01*
X2405709D01*
Y2103321D01*
X2403720D01*
Y2101333D01*
X2401732D01*
Y2099345D01*
X2399743D01*
Y2097356D01*
X2397755D01*
Y2095367D01*
X2395766D01*
Y2093379D01*
X2393778D01*
Y2091390D01*
X2391789D01*
Y2089402D01*
X2389801D01*
Y2087413D01*
X2387812D01*
Y2085425D01*
X2385824D01*
Y2083436D01*
X2383835D01*
Y2081448D01*
X2381847D01*
Y2079459D01*
X2379858D01*
Y2077471D01*
X2377870D01*
Y2075482D01*
X2375881D01*
Y2073494D01*
X2373892D01*
Y2071505D01*
X2371904D01*
Y2069517D01*
X2369916D01*
Y2067528D01*
X2367927D01*
Y2065540D01*
X2365938D01*
Y2063551D01*
X2363950D01*
Y2061563D01*
X2361961D01*
Y2059574D01*
X2359973D01*
Y2057586D01*
X2357984D01*
Y2055597D01*
X2355996D01*
Y2053609D01*
X2354007D01*
Y2051620D01*
X2352019D01*
Y2049631D01*
X2350030D01*
Y2047643D01*
X2348042D01*
Y2045655D01*
X2346053D01*
Y2043666D01*
X2344065D01*
Y2041677D01*
X2342076D01*
Y2039689D01*
X2340088D01*
Y2037701D01*
X2338099D01*
Y2035712D01*
X2336111D01*
Y2033723D01*
X2334122D01*
Y2031735D01*
X2332134D01*
Y2029746D01*
X2330145D01*
Y2027758D01*
X2328157D01*
Y2025769D01*
X2326168D01*
Y2023781D01*
X2324180D01*
Y2021792D01*
X2322191D01*
Y2019804D01*
X2320203D01*
Y2017815D01*
X2318214D01*
Y2015827D01*
X2316225D01*
Y2013838D01*
X2314237D01*
Y2011850D01*
X2312248D01*
Y2009861D01*
X2310260D01*
Y2007873D01*
X2308271D01*
Y2005884D01*
X2306283D01*
Y2003896D01*
X2304294D01*
Y2001907D01*
X2302306D01*
Y1999919D01*
X2300317D01*
Y1997930D01*
X2298329D01*
Y1995942D01*
X2296340D01*
Y1993953D01*
X2294352D01*
Y1991965D01*
X2292363D01*
Y1989976D01*
X2290375D01*
Y1987987D01*
X2288386D01*
Y1985999D01*
X2286398D01*
Y1984011D01*
X2284409D01*
Y1982022D01*
X2282421D01*
Y1980033D01*
X2276455D01*
Y2143092D01*
Y2145080D01*
Y2162977D01*
X2278444D01*
Y2164965D01*
X2280432D01*
Y2166954D01*
X2282421D01*
Y2168943D01*
X2284409D01*
Y2170931D01*
X2286398D01*
Y2172920D01*
X2288386D01*
Y2174908D01*
X2290375D01*
Y2176897D01*
X2292363D01*
Y2178885D01*
X2294352D01*
Y2180874D01*
X2296340D01*
Y2182862D01*
X2298329D01*
Y2184851D01*
X2300317D01*
Y2186839D01*
X2302306D01*
Y2188828D01*
X2304294D01*
Y2190816D01*
X2306283D01*
Y2192805D01*
X2308271D01*
Y2194793D01*
X2310260D01*
Y2196782D01*
X2312248D01*
Y2198770D01*
X2314237D01*
Y2200759D01*
X2316225D01*
Y2202747D01*
X2318214D01*
Y2204736D01*
X2320203D01*
Y2208713D01*
X2318214D01*
Y2210701D01*
X2316225D01*
Y2212690D01*
X2314237D01*
Y2214679D01*
X2312248D01*
Y2216667D01*
X2310260D01*
Y2218655D01*
X2308271D01*
Y2220644D01*
X2306283D01*
Y2222633D01*
X2304294D01*
Y2224621D01*
X2302306D01*
Y2226610D01*
X2300317D01*
Y2228598D01*
X2298329D01*
Y2230587D01*
X2296340D01*
Y2232575D01*
X2294352D01*
Y2234564D01*
X2292363D01*
Y2236552D01*
X2290375D01*
Y2238541D01*
X2288386D01*
Y2240529D01*
X2286398D01*
Y2242518D01*
X2284409D01*
Y2244506D01*
X2282421D01*
Y2246495D01*
X2280432D01*
Y2248483D01*
X2278444D01*
Y2431427D01*
X2282421D01*
Y2427450D01*
D02*
G37*
G36*
X1916533Y2248483D02*
X1914545D01*
Y2246495D01*
X1912556D01*
Y2244506D01*
X1910568D01*
Y2242518D01*
X1908579D01*
Y2240529D01*
X1906591D01*
Y2238541D01*
X1904602D01*
Y2236552D01*
X1902614D01*
Y2234564D01*
X1900625D01*
Y2232575D01*
X1898637D01*
Y2230587D01*
X1896648D01*
Y2228598D01*
X1894660D01*
Y2226610D01*
X1892671D01*
Y2224621D01*
X1890683D01*
Y2222633D01*
X1888694D01*
Y2220644D01*
X1886706D01*
Y2218655D01*
X1884717D01*
Y2216667D01*
X1882729D01*
Y2214679D01*
X1880740D01*
Y2212690D01*
X1878752D01*
Y2210701D01*
X1876763D01*
Y2208713D01*
X1874775D01*
Y2202747D01*
X1876763D01*
Y2200759D01*
X1878752D01*
Y2198770D01*
X1880740D01*
Y2196782D01*
X1882729D01*
Y2194793D01*
X1884717D01*
Y2192805D01*
X1886706D01*
Y2190816D01*
X1888694D01*
Y2188828D01*
X1890683D01*
Y2186839D01*
X1892671D01*
Y2184851D01*
X1894660D01*
Y2182862D01*
X1896648D01*
Y2180874D01*
X1898637D01*
Y2178885D01*
X1900625D01*
Y2176897D01*
X1902614D01*
Y2174908D01*
X1904602D01*
Y2172920D01*
X1906591D01*
Y2170931D01*
X1908579D01*
Y2168943D01*
X1910568D01*
Y2166954D01*
X1912556D01*
Y2164965D01*
X1916533D01*
Y2160989D01*
X1918522D01*
Y1980033D01*
X1912556D01*
Y1982022D01*
X1910568D01*
Y1984011D01*
X1908579D01*
Y1985999D01*
X1906591D01*
Y1987987D01*
X1904602D01*
Y1989976D01*
X1902614D01*
Y1991965D01*
X1900625D01*
Y1993953D01*
X1898637D01*
Y1995942D01*
X1896648D01*
Y1997930D01*
X1894660D01*
Y1999919D01*
X1892671D01*
Y2001907D01*
X1890683D01*
Y2003896D01*
X1888694D01*
Y2005884D01*
X1886706D01*
Y2007873D01*
X1884717D01*
Y2009861D01*
X1882729D01*
Y2011850D01*
X1880740D01*
Y2013838D01*
X1878752D01*
Y2015827D01*
X1876763D01*
Y2017815D01*
X1874775D01*
Y2019804D01*
X1872786D01*
Y2021792D01*
X1870797D01*
Y2023781D01*
X1868809D01*
Y2025769D01*
X1866820D01*
Y2027758D01*
X1864832D01*
Y2029746D01*
X1862843D01*
Y2031735D01*
X1860855D01*
Y2033723D01*
X1858866D01*
Y2035712D01*
X1856878D01*
Y2037701D01*
X1854889D01*
Y2039689D01*
X1852901D01*
Y2041677D01*
X1850912D01*
Y2043666D01*
X1848924D01*
Y2045655D01*
X1846935D01*
Y2047643D01*
X1844947D01*
Y2049631D01*
X1842958D01*
Y2051620D01*
X1840970D01*
Y2053609D01*
X1838981D01*
Y2055597D01*
X1836993D01*
Y2057586D01*
X1835004D01*
Y2059574D01*
X1833016D01*
Y2061563D01*
X1831027D01*
Y2063551D01*
X1829039D01*
Y2065540D01*
X1827050D01*
Y2067528D01*
X1825062D01*
Y2069517D01*
X1823073D01*
Y2071505D01*
X1821084D01*
Y2073494D01*
X1819096D01*
Y2075482D01*
X1817108D01*
Y2077471D01*
X1815119D01*
Y2079459D01*
X1813130D01*
Y2081448D01*
X1811142D01*
Y2083436D01*
X1809153D01*
Y2085425D01*
X1807165D01*
Y2087413D01*
X1805176D01*
Y2089402D01*
X1803188D01*
Y2091390D01*
X1801199D01*
Y2093379D01*
X1799211D01*
Y2095367D01*
X1797222D01*
Y2097356D01*
X1795234D01*
Y2099345D01*
X1793245D01*
Y2101333D01*
X1791257D01*
Y2103321D01*
X1789268D01*
Y2105310D01*
X1787280D01*
Y2107299D01*
X1785291D01*
Y2109287D01*
X1783303D01*
Y2111276D01*
X1781314D01*
Y2300185D01*
X1783303D01*
Y2302173D01*
X1785291D01*
Y2304162D01*
X1789268D01*
Y2308139D01*
X1791257D01*
Y2310127D01*
X1793245D01*
Y2312116D01*
X1797222D01*
Y2314104D01*
X1799211D01*
Y2316093D01*
X1801199D01*
Y2318081D01*
X1803188D01*
Y2320070D01*
X1805176D01*
Y2322058D01*
X1807165D01*
Y2324047D01*
X1809153D01*
Y2326035D01*
X1811142D01*
Y2328024D01*
X1813130D01*
Y2330013D01*
X1815119D01*
Y2332001D01*
X1817108D01*
Y2333989D01*
X1819096D01*
Y2335978D01*
X1821084D01*
Y2337967D01*
X1823073D01*
Y2339955D01*
X1825062D01*
Y2341944D01*
X1827050D01*
Y2343932D01*
X1829039D01*
Y2345921D01*
X1831027D01*
Y2347909D01*
X1833016D01*
Y2349898D01*
X1835004D01*
Y2351886D01*
X1836993D01*
Y2353875D01*
X1838981D01*
Y2355863D01*
X1840970D01*
Y2357852D01*
X1842958D01*
Y2359840D01*
X1844947D01*
Y2361829D01*
X1846935D01*
Y2363817D01*
X1848924D01*
Y2365806D01*
X1850912D01*
Y2367794D01*
X1852901D01*
Y2369783D01*
X1854889D01*
Y2371771D01*
X1856878D01*
Y2373760D01*
X1858866D01*
Y2375748D01*
X1860855D01*
Y2377737D01*
X1862843D01*
Y2379725D01*
X1864832D01*
Y2381714D01*
X1866820D01*
Y2383703D01*
X1868809D01*
Y2385691D01*
X1870797D01*
Y2387680D01*
X1872786D01*
Y2389668D01*
X1874775D01*
Y2391657D01*
X1876763D01*
Y2393645D01*
X1878752D01*
Y2395634D01*
X1880740D01*
Y2397622D01*
X1882729D01*
Y2399611D01*
X1884717D01*
Y2401599D01*
X1886706D01*
Y2403588D01*
X1888694D01*
Y2405576D01*
X1890683D01*
Y2407565D01*
X1892671D01*
Y2409553D01*
X1894660D01*
Y2411542D01*
X1896648D01*
Y2413530D01*
X1898637D01*
Y2415519D01*
X1900625D01*
Y2417507D01*
X1902614D01*
Y2419496D01*
X1904602D01*
Y2421484D01*
X1906591D01*
Y2425461D01*
X1908579D01*
Y2427450D01*
X1910568D01*
Y2429438D01*
X1912556D01*
Y2431427D01*
X1916533D01*
Y2248483D01*
D02*
G37*
G36*
X2095500Y2159000D02*
Y2157011D01*
Y1982022D01*
X2097489D01*
Y1984011D01*
X2099477D01*
Y1985999D01*
X2101465D01*
Y1987987D01*
X2103454D01*
Y1989976D01*
X2105443D01*
Y1991965D01*
X2107431D01*
Y1993953D01*
X2109420D01*
Y1995942D01*
X2111408D01*
Y1997930D01*
X2113397D01*
Y1999919D01*
X2115385D01*
Y2001907D01*
X2117374D01*
Y2003896D01*
X2119362D01*
Y2005884D01*
X2121351D01*
Y2007873D01*
X2123339D01*
Y2009861D01*
X2125328D01*
Y2011850D01*
X2127316D01*
Y2013838D01*
X2129305D01*
Y2015827D01*
X2131293D01*
Y2017815D01*
X2133282D01*
Y2019804D01*
X2135270D01*
Y2021792D01*
X2137259D01*
Y2023781D01*
X2139247D01*
Y2025769D01*
X2141236D01*
Y2027758D01*
X2143224D01*
Y2029746D01*
X2145213D01*
Y2031735D01*
X2147201D01*
Y2033723D01*
X2149190D01*
Y2035712D01*
X2151179D01*
Y2037701D01*
X2155155D01*
Y2039689D01*
X2157144D01*
Y2041677D01*
X2159133D01*
Y2043666D01*
X2161121D01*
Y2045655D01*
X2163110D01*
Y2047643D01*
X2165098D01*
Y2049631D01*
X2167087D01*
Y2051620D01*
X2169075D01*
Y2053609D01*
X2171064D01*
Y2055597D01*
X2173052D01*
Y2057586D01*
X2175041D01*
Y2059574D01*
X2177029D01*
Y2061563D01*
X2179018D01*
Y2063551D01*
X2181006D01*
Y2065540D01*
X2182995D01*
Y2067528D01*
X2184983D01*
Y2069517D01*
X2186972D01*
Y2071505D01*
X2188960D01*
Y2073494D01*
X2190949D01*
Y2075482D01*
X2192937D01*
Y2077471D01*
X2194926D01*
Y2079459D01*
X2196914D01*
Y2081448D01*
X2198903D01*
Y2083436D01*
X2200891D01*
Y2085425D01*
X2202880D01*
Y2087413D01*
X2204869D01*
Y2089402D01*
X2206857D01*
Y2091390D01*
X2208845D01*
Y2093379D01*
X2210834D01*
Y2095367D01*
X2212823D01*
Y2097356D01*
X2214811D01*
Y2099345D01*
X2216799D01*
Y2101333D01*
X2218788D01*
Y2103321D01*
X2220777D01*
Y2105310D01*
X2222765D01*
Y2107299D01*
X2224754D01*
Y2109287D01*
X2226742D01*
Y2111276D01*
X2228731D01*
Y2115253D01*
X2230719D01*
Y2117241D01*
X2236685D01*
Y1934297D01*
X2234696D01*
Y1932309D01*
X2232708D01*
Y1930320D01*
X2230719D01*
Y1928332D01*
X2226742D01*
Y1926343D01*
X2224754D01*
Y1924355D01*
X2222765D01*
Y1922366D01*
X2220777D01*
Y1920378D01*
X2218788D01*
Y1918389D01*
X2216799D01*
Y1916401D01*
X2214811D01*
Y1914412D01*
X2212823D01*
Y1912424D01*
X2210834D01*
Y1910435D01*
X2208845D01*
Y1908447D01*
X2206857D01*
Y1906458D01*
X2204869D01*
Y1904470D01*
X2202880D01*
Y1902481D01*
X2200891D01*
Y1900493D01*
X2198903D01*
Y1898504D01*
X2196914D01*
Y1896516D01*
X2194926D01*
Y1894527D01*
X2192937D01*
Y1892539D01*
X2190949D01*
Y1888562D01*
X2188960D01*
Y1886573D01*
X2186972D01*
Y1884584D01*
X2184983D01*
Y1882596D01*
X2182995D01*
Y1880608D01*
X2181006D01*
Y1878619D01*
X2179018D01*
Y1876630D01*
X2177029D01*
Y1874642D01*
X2175041D01*
Y1872653D01*
X2173052D01*
Y1870665D01*
X2171064D01*
Y1868676D01*
X2169075D01*
Y1866688D01*
X2167087D01*
Y1864699D01*
X2165098D01*
Y1862711D01*
X2163110D01*
Y1860722D01*
X2161121D01*
Y1858734D01*
X2159133D01*
Y1856745D01*
X2157144D01*
Y1854757D01*
X2155155D01*
Y1852768D01*
X2153167D01*
Y1850780D01*
X2151179D01*
Y1848791D01*
X2149190D01*
Y1846803D01*
X2147201D01*
Y1844814D01*
X2145213D01*
Y1842826D01*
X2143224D01*
Y1840837D01*
X2141236D01*
Y1838849D01*
X2139247D01*
Y1836860D01*
X2137259D01*
Y1834872D01*
X2135270D01*
Y1832883D01*
X2133282D01*
Y1830894D01*
X2131293D01*
Y1828906D01*
X2129305D01*
Y1826918D01*
X2127316D01*
Y1824929D01*
X2125328D01*
Y1822940D01*
X2123339D01*
Y1820952D01*
X2121351D01*
Y1818964D01*
X2119362D01*
Y1816975D01*
X2117374D01*
Y1814986D01*
X2115385D01*
Y1812998D01*
X2113397D01*
Y1811009D01*
X2111408D01*
Y1809021D01*
X2109420D01*
Y1807032D01*
X2107431D01*
Y1805044D01*
X2105443D01*
Y1803055D01*
X2103454D01*
Y1801067D01*
X2101465D01*
Y1799078D01*
X2099477D01*
Y1797090D01*
X2089535D01*
Y1799078D01*
X2087546D01*
Y1801067D01*
X2079592D01*
Y1803055D01*
X2073626D01*
Y1805044D01*
X2069649D01*
Y1807032D01*
X2059707D01*
Y1809021D01*
X2055730D01*
Y1811009D01*
X2047776D01*
Y1812998D01*
X2043799D01*
Y1814986D01*
X2033856D01*
Y1816975D01*
X2031867D01*
Y1818964D01*
X2021925D01*
Y1820952D01*
X2019936D01*
Y1822940D01*
X2009994D01*
Y1824929D01*
X2006017D01*
Y1826918D01*
X1998063D01*
Y1828906D01*
X1994086D01*
Y1830894D01*
X1986131D01*
Y1832883D01*
X1980166D01*
Y1834872D01*
X1976189D01*
Y1836860D01*
X1968235D01*
Y1838849D01*
X1964258D01*
Y1840837D01*
X1958292D01*
Y2099345D01*
X1960281D01*
Y2477163D01*
X1962269D01*
Y2479151D01*
X1964258D01*
Y2481140D01*
X1966246D01*
Y2483128D01*
X1968235D01*
Y2485117D01*
X1970223D01*
Y2487106D01*
X1972212D01*
Y2489094D01*
X1974201D01*
Y2491082D01*
X1976189D01*
Y2493071D01*
X1978177D01*
Y2495060D01*
X1980166D01*
Y2497048D01*
X1982155D01*
Y2499037D01*
X1984143D01*
Y2501025D01*
X1986131D01*
Y2503014D01*
X1988120D01*
Y2505002D01*
X1990109D01*
Y2506991D01*
X1992097D01*
Y2508979D01*
X1994086D01*
Y2510968D01*
X1996074D01*
Y2512956D01*
X1998063D01*
Y2514945D01*
X2000051D01*
Y2516933D01*
X2002040D01*
Y2518922D01*
X2004028D01*
Y2520910D01*
X2006017D01*
Y2522899D01*
X2008005D01*
Y2524887D01*
X2009994D01*
Y2526876D01*
X2011982D01*
Y2528864D01*
X2013971D01*
Y2530853D01*
X2015959D01*
Y2532841D01*
X2017948D01*
Y2534830D01*
X2019936D01*
Y2536818D01*
X2021925D01*
Y2538807D01*
X2023913D01*
Y2540796D01*
X2025902D01*
Y2542784D01*
X2027890D01*
Y2544772D01*
X2029879D01*
Y2546761D01*
X2031867D01*
Y2548750D01*
X2033856D01*
Y2550738D01*
X2035845D01*
Y2552726D01*
X2037833D01*
Y2554715D01*
X2039821D01*
Y2556704D01*
X2041810D01*
Y2558692D01*
X2043799D01*
Y2560681D01*
X2045787D01*
Y2562669D01*
X2047776D01*
Y2564658D01*
X2049764D01*
Y2566646D01*
X2051753D01*
Y2568635D01*
X2053741D01*
Y2570623D01*
X2055730D01*
Y2572612D01*
X2057718D01*
Y2574600D01*
X2059707D01*
Y2576589D01*
X2061695D01*
Y2578577D01*
X2063684D01*
Y2580566D01*
X2065672D01*
Y2582554D01*
X2067661D01*
Y2584543D01*
X2069649D01*
Y2586531D01*
X2071638D01*
Y2588520D01*
X2073626D01*
Y2590508D01*
X2075615D01*
Y2592497D01*
X2077603D01*
Y2594485D01*
X2079592D01*
Y2596474D01*
X2081580D01*
Y2598462D01*
X2083569D01*
Y2600451D01*
X2085557D01*
Y2602440D01*
X2087546D01*
Y2604428D01*
X2089535D01*
Y2608405D01*
X2095500D01*
Y2159000D01*
D02*
G37*
D24*
X3784600Y1549400D02*
Y1701751D01*
X3733817Y1650967D01*
X3683033Y1701751D01*
Y1549400D01*
X3632249Y1650967D02*
Y1574792D01*
X3606857Y1549400D01*
X3530682D01*
Y1650967D01*
X3479899Y1549400D02*
X3403723D01*
X3378331Y1574792D01*
X3403723Y1600183D01*
X3454507D01*
X3479899Y1625575D01*
X3454507Y1650967D01*
X3378331D01*
X3327548Y1549400D02*
X3276764D01*
X3302156D01*
Y1650967D01*
X3327548D01*
X3099022D02*
X3175197D01*
X3200589Y1625575D01*
Y1574792D01*
X3175197Y1549400D01*
X3099022D01*
X3048238Y1701751D02*
Y1549400D01*
X2972063D01*
X2946671Y1574792D01*
Y1600183D01*
X2972063Y1625575D01*
X3048238D01*
X2972063D01*
X2946671Y1650967D01*
Y1676359D01*
X2972063Y1701751D01*
X3048238D01*
X2870496Y1549400D02*
X2819712D01*
X2794320Y1574792D01*
Y1625575D01*
X2819712Y1650967D01*
X2870496D01*
X2895888Y1625575D01*
Y1574792D01*
X2870496Y1549400D01*
X2743537Y1650967D02*
X2641970Y1549400D01*
X2692753Y1600183D01*
X2641970Y1650967D01*
X2743537Y1549400D01*
X2489619Y1676359D02*
X2515011Y1701751D01*
X2565794D01*
X2591186Y1676359D01*
Y1650967D01*
X2565794Y1625575D01*
X2515011D01*
X2489619Y1600183D01*
Y1574792D01*
X2515011Y1549400D01*
X2565794D01*
X2591186Y1574792D01*
X2438835Y1701751D02*
Y1549400D01*
Y1625575D01*
X2413443Y1650967D01*
X2362660D01*
X2337268Y1625575D01*
Y1549400D01*
X2286485D02*
X2235701D01*
X2261093D01*
Y1650967D01*
X2286485D01*
X2083350Y1549400D02*
X2134134D01*
X2159526Y1574792D01*
Y1625575D01*
X2134134Y1650967D01*
X2083350D01*
X2057959Y1625575D01*
Y1600183D01*
X2159526D01*
X2007175Y1549400D02*
X1956392D01*
X1981783D01*
Y1701751D01*
X2007175D01*
X1778649D02*
Y1549400D01*
X1854824D01*
X1880216Y1574792D01*
Y1625575D01*
X1854824Y1650967D01*
X1778649D01*
X8178825Y2603541D02*
X8331175D01*
Y2679717D01*
X8305783Y2705108D01*
X8255000D01*
X8229608Y2679717D01*
Y2603541D01*
X8178825Y2832067D02*
X8331175D01*
X8255000Y2755892D01*
Y2857459D01*
X7035825Y571541D02*
X7188175D01*
Y647717D01*
X7162783Y673108D01*
X7112000D01*
X7086608Y647717D01*
Y571541D01*
X7188175Y825459D02*
Y723892D01*
X7112000D01*
X7137392Y774675D01*
Y800067D01*
X7112000Y825459D01*
X7061217D01*
X7035825Y800067D01*
Y749284D01*
X7061217Y723892D01*
X7619959Y1447825D02*
Y1600175D01*
X7543783D01*
X7518392Y1574783D01*
Y1524000D01*
X7543783Y1498608D01*
X7619959D01*
X7467608Y1574783D02*
X7442216Y1600175D01*
X7391433D01*
X7366041Y1574783D01*
Y1549392D01*
X7391433Y1524000D01*
X7416825D01*
X7391433D01*
X7366041Y1498608D01*
Y1473217D01*
X7391433Y1447825D01*
X7442216D01*
X7467608Y1473217D01*
X7035825Y3327433D02*
X7188175D01*
Y3403608D01*
X7162783Y3429000D01*
X7112000D01*
X7086608Y3403608D01*
Y3327433D01*
X7035825Y3479784D02*
Y3530567D01*
Y3505176D01*
X7188175D01*
X7162783Y3479784D01*
X8178825Y1333541D02*
X8331175D01*
Y1409717D01*
X8305783Y1435108D01*
X8255000D01*
X8229608Y1409717D01*
Y1333541D01*
X8178825Y1587459D02*
Y1485892D01*
X8280392Y1587459D01*
X8305783D01*
X8331175Y1562067D01*
Y1511284D01*
X8305783Y1485892D01*
D25*
X8699500Y2476500D02*
Y2984500D01*
X8445500Y2476500D02*
X8699500D01*
X8445500D02*
Y2984500D01*
X8699500D01*
X8318500Y571500D02*
Y825500D01*
X7302500D02*
X8318500D01*
X7302500Y571500D02*
X8318500D01*
X7302500D02*
Y825500D01*
X7366000Y2476500D02*
X7620000D01*
X7366000Y1714500D02*
Y2476500D01*
Y1714500D02*
X7620000D01*
Y2476500D01*
X7302500Y3302000D02*
Y3556000D01*
Y3302000D02*
X8064500D01*
Y3556000D01*
X7302500D02*
X8064500D01*
X8699500Y1206500D02*
Y1714500D01*
X8445500Y1206500D02*
X8699500D01*
X8445500D02*
Y1714500D01*
X8699500D01*
D27*
X3794760Y1416451D02*
Y1348740D01*
Y1382596D01*
X3777832Y1399523D01*
X3760904Y1416451D01*
X3743977D01*
X3642409Y1348740D02*
X3676265D01*
X3693193Y1365668D01*
Y1399523D01*
X3676265Y1416451D01*
X3642409D01*
X3625481Y1399523D01*
Y1382596D01*
X3693193D01*
X3591626Y1416451D02*
X3557770Y1348740D01*
X3523914Y1416451D01*
X3490058Y1348740D02*
Y1365668D01*
X3473130D01*
Y1348740D01*
X3490058D01*
X3303852D02*
X3269996D01*
X3286924D01*
Y1450307D01*
X3303852Y1433379D01*
X3117645Y1348740D02*
X3049934Y1416451D01*
X2846799Y1348740D02*
X2914511D01*
X2846799Y1416451D01*
Y1433379D01*
X2863727Y1450307D01*
X2897583D01*
X2914511Y1433379D01*
X2812943D02*
X2796015Y1450307D01*
X2762160D01*
X2745232Y1433379D01*
Y1365668D01*
X2762160Y1348740D01*
X2796015D01*
X2812943Y1365668D01*
Y1433379D01*
X2643665Y1348740D02*
X2711376D01*
X2643665Y1416451D01*
Y1433379D01*
X2660593Y1450307D01*
X2694448D01*
X2711376Y1433379D01*
X2609809D02*
X2592881Y1450307D01*
X2559025D01*
X2542098Y1433379D01*
Y1416451D01*
X2559025Y1399523D01*
X2575953D01*
X2559025D01*
X2542098Y1382596D01*
Y1365668D01*
X2559025Y1348740D01*
X2592881D01*
X2609809Y1365668D01*
X2508242Y1348740D02*
Y1365668D01*
X2491314D01*
Y1348740D01*
X2508242D01*
X2423602Y1433379D02*
X2406674Y1450307D01*
X2372819D01*
X2355891Y1433379D01*
Y1365668D01*
X2372819Y1348740D01*
X2406674D01*
X2423602Y1365668D01*
Y1433379D01*
X2254324Y1450307D02*
X2288179Y1433379D01*
X2322035Y1399523D01*
Y1365668D01*
X2305107Y1348740D01*
X2271251D01*
X2254324Y1365668D01*
Y1382596D01*
X2271251Y1399523D01*
X2322035D01*
X2220468Y1348740D02*
Y1365668D01*
X2203540D01*
Y1348740D01*
X2220468D01*
X2068117D02*
X2135828D01*
X2068117Y1416451D01*
Y1433379D01*
X2085045Y1450307D01*
X2118901D01*
X2135828Y1433379D01*
X2034261D02*
X2017333Y1450307D01*
X1983478D01*
X1966550Y1433379D01*
Y1416451D01*
X1983478Y1399523D01*
X1966550Y1382596D01*
Y1365668D01*
X1983478Y1348740D01*
X2017333D01*
X2034261Y1365668D01*
Y1382596D01*
X2017333Y1399523D01*
X2034261Y1416451D01*
Y1433379D01*
X2017333Y1399523D02*
X1983478D01*
X8684260Y1928663D02*
Y1827096D01*
X8633477D01*
X8616549Y1844023D01*
Y1860951D01*
X8633477Y1877879D01*
X8684260D01*
X8633477D01*
X8616549Y1894807D01*
Y1911735D01*
X8633477Y1928663D01*
X8684260D01*
X8565765Y1894807D02*
X8531909D01*
X8514981Y1877879D01*
Y1827096D01*
X8565765D01*
X8582693Y1844023D01*
X8565765Y1860951D01*
X8514981D01*
X8464198Y1911735D02*
Y1894807D01*
X8481126D01*
X8447270D01*
X8464198D01*
Y1844023D01*
X8447270Y1827096D01*
X8379558Y1911735D02*
Y1894807D01*
X8396486D01*
X8362630D01*
X8379558D01*
Y1844023D01*
X8362630Y1827096D01*
X8261063D02*
X8294919D01*
X8311847Y1844023D01*
Y1877879D01*
X8294919Y1894807D01*
X8261063D01*
X8244135Y1877879D01*
Y1860951D01*
X8311847D01*
X8210279Y1894807D02*
Y1827096D01*
Y1860951D01*
X8193352Y1877879D01*
X8176424Y1894807D01*
X8159496D01*
X8108712D02*
Y1844023D01*
X8091784Y1827096D01*
X8041001D01*
Y1810168D01*
X8057929Y1793240D01*
X8074857D01*
X8041001Y1827096D02*
Y1894807D01*
X8684260Y2402807D02*
Y2301240D01*
X8633477D01*
X8616549Y2318168D01*
Y2335096D01*
X8633477Y2352023D01*
X8684260D01*
X8633477D01*
X8616549Y2368951D01*
Y2385879D01*
X8633477Y2402807D01*
X8684260D01*
X8582693Y2368951D02*
Y2318168D01*
X8565765Y2301240D01*
X8514981D01*
Y2368951D01*
X8481126D02*
X8413414D01*
X8481126Y2301240D01*
X8413414D01*
X8379558Y2368951D02*
X8311847D01*
X8379558Y2301240D01*
X8311847D01*
X8227208D02*
X8261063D01*
X8277991Y2318168D01*
Y2352023D01*
X8261063Y2368951D01*
X8227208D01*
X8210280Y2352023D01*
Y2335096D01*
X8277991D01*
X8176424Y2368951D02*
Y2301240D01*
Y2335096D01*
X8159496Y2352023D01*
X8142568Y2368951D01*
X8125640D01*
X8239760Y1005807D02*
Y921168D01*
X8222832Y904240D01*
X8188977D01*
X8172049Y921168D01*
Y1005807D01*
X8138193Y904240D02*
X8104337D01*
X8121265D01*
Y1005807D01*
X8138193D01*
X8036626Y988879D02*
Y971951D01*
X8053553D01*
X8019698D01*
X8036626D01*
Y921168D01*
X8019698Y904240D01*
X7968914Y971951D02*
Y904240D01*
Y938096D01*
X7951986Y955023D01*
X7935058Y971951D01*
X7918130D01*
X7850419D02*
X7816563D01*
X7799635Y955023D01*
Y904240D01*
X7850419D01*
X7867347Y921168D01*
X7850419Y938096D01*
X7799635D01*
X7765779Y904240D02*
X7714996D01*
X7698068Y921168D01*
X7714996Y938096D01*
X7748852D01*
X7765779Y955023D01*
X7748852Y971951D01*
X7698068D01*
X7647284Y904240D02*
X7613429D01*
X7596501Y921168D01*
Y955023D01*
X7613429Y971951D01*
X7647284D01*
X7664212Y955023D01*
Y921168D01*
X7647284Y904240D01*
X7562645D02*
Y971951D01*
X7511862D01*
X7494934Y955023D01*
Y904240D01*
X7461078D02*
X7427222D01*
X7444150D01*
Y971951D01*
X7461078D01*
X7308727D02*
X7359511D01*
X7376438Y955023D01*
Y921168D01*
X7359511Y904240D01*
X7308727D01*
X7275379Y1987951D02*
X7292307Y1971023D01*
Y1937168D01*
X7275379Y1920240D01*
X7258451D01*
X7241523Y1937168D01*
Y1971023D01*
X7224596Y1987951D01*
X7207668D01*
X7190740Y1971023D01*
Y1937168D01*
X7207668Y1920240D01*
X7190740Y2072591D02*
Y2038735D01*
X7207668Y2021807D01*
X7241523D01*
X7258451Y2038735D01*
Y2072591D01*
X7241523Y2089519D01*
X7224596D01*
Y2021807D01*
X7258451Y2123374D02*
X7190740D01*
X7224596D01*
X7241523Y2140302D01*
X7258451Y2157230D01*
Y2174158D01*
Y2224942D02*
X7190740Y2258797D01*
X7258451Y2292653D01*
X7190740Y2343437D02*
Y2377292D01*
X7207668Y2394220D01*
X7241523D01*
X7258451Y2377292D01*
Y2343437D01*
X7241523Y2326509D01*
X7207668D01*
X7190740Y2343437D01*
X8303260Y3126740D02*
Y3228307D01*
X8252477D01*
X8235549Y3211379D01*
Y3177523D01*
X8252477Y3160596D01*
X8303260D01*
X8184765Y3126740D02*
X8150909D01*
X8133981Y3143668D01*
Y3177523D01*
X8150909Y3194451D01*
X8184765D01*
X8201693Y3177523D01*
Y3143668D01*
X8184765Y3126740D01*
X8083198Y3211379D02*
Y3194451D01*
X8100126D01*
X8066270D01*
X8083198D01*
Y3143668D01*
X8066270Y3126740D01*
X7964703D02*
X7998558D01*
X8015486Y3143668D01*
Y3177523D01*
X7998558Y3194451D01*
X7964703D01*
X7947775Y3177523D01*
Y3160596D01*
X8015486D01*
X7913919Y3126740D02*
Y3194451D01*
X7863135D01*
X7846208Y3177523D01*
Y3126740D01*
X7795424Y3211379D02*
Y3194451D01*
X7812352D01*
X7778496D01*
X7795424D01*
Y3143668D01*
X7778496Y3126740D01*
X7727712D02*
X7693857D01*
X7710784D01*
Y3194451D01*
X7727712D01*
X7626145Y3126740D02*
X7592289D01*
X7575362Y3143668D01*
Y3177523D01*
X7592289Y3194451D01*
X7626145D01*
X7643073Y3177523D01*
Y3143668D01*
X7626145Y3126740D01*
X7541506D02*
Y3194451D01*
X7524578D01*
X7507650Y3177523D01*
Y3126740D01*
Y3177523D01*
X7490722Y3194451D01*
X7473794Y3177523D01*
Y3126740D01*
X7389155D02*
X7423011D01*
X7439938Y3143668D01*
Y3177523D01*
X7423011Y3194451D01*
X7389155D01*
X7372227Y3177523D01*
Y3160596D01*
X7439938D01*
X7321443Y3211379D02*
Y3194451D01*
X7338371D01*
X7304515D01*
X7321443D01*
Y3143668D01*
X7304515Y3126740D01*
X7202948D02*
X7236804D01*
X7253732Y3143668D01*
Y3177523D01*
X7236804Y3194451D01*
X7202948D01*
X7186020Y3177523D01*
Y3160596D01*
X7253732D01*
X7152165Y3194451D02*
Y3126740D01*
Y3160596D01*
X7135237Y3177523D01*
X7118309Y3194451D01*
X7101381D01*
%TF.MD5,320cc3124ebfa773c333191d6d8c6776*%
M02*
