%TF.GenerationSoftware,Altium Limited,Altium Designer,23.6.0 (18)*%
G04 Layer_Physical_Order=2*
G04 Layer_Color=16711680*
%FSLAX45Y45*%
%MOMM*%
%TF.SameCoordinates,BE964043-2EFE-40DF-B488-D83AE96C0F84*%
%TF.FilePolarity,Positive*%
%TF.FileFunction,Copper,L2,Bot,Signal*%
%TF.Part,Single*%
G01*
G75*
%TA.AperFunction,Conductor*%
%ADD10C,0.25400*%
%TA.AperFunction,ComponentPad*%
%ADD13C,1.50000*%
%ADD14R,1.50000X1.50000*%
%ADD15R,1.50000X1.50000*%
%ADD16C,1.20000*%
%ADD17C,1.15000*%
%ADD18R,1.15000X1.15000*%
%TA.AperFunction,ViaPad*%
%ADD19C,3.20000*%
%TA.AperFunction,ComponentPad*%
%ADD20R,1.52400X1.52400*%
%ADD21C,1.52400*%
%ADD22C,1.77800*%
%TA.AperFunction,ViaPad*%
%ADD23C,1.27000*%
G36*
X6583609Y5071554D02*
Y4064001D01*
X6585162Y4056197D01*
X6589582Y4049581D01*
X6843581Y3795583D01*
X6843581Y3795582D01*
X6850197Y3791162D01*
X6858001Y3789609D01*
X8806109D01*
Y401391D01*
X6858001D01*
X6850197Y399838D01*
X6843581Y395418D01*
X6589583Y141419D01*
X6589582Y141419D01*
X6585162Y134803D01*
X6583609Y126999D01*
Y20391D01*
X1099891D01*
Y5313609D01*
X6341554D01*
X6583609Y5071554D01*
D02*
G37*
%LPC*%
G36*
X2667000Y5178378D02*
Y5105400D01*
X2739978D01*
X2736276Y5119216D01*
X2722900Y5142384D01*
X2703984Y5161300D01*
X2680816Y5174676D01*
X2667000Y5178378D01*
D02*
G37*
G36*
X2616200D02*
X2602384Y5174676D01*
X2579216Y5161300D01*
X2560300Y5142384D01*
X2546924Y5119216D01*
X2543222Y5105400D01*
X2616200D01*
Y5178378D01*
D02*
G37*
G36*
X6446520Y5176520D02*
X6253480D01*
Y4983480D01*
X6446520D01*
Y5176520D01*
D02*
G37*
G36*
X6108707D02*
X6083293D01*
X6058745Y5169942D01*
X6036735Y5157235D01*
X6018765Y5139265D01*
X6006058Y5117255D01*
X5999480Y5092707D01*
Y5067293D01*
X6006058Y5042745D01*
X6018765Y5020735D01*
X6036735Y5002765D01*
X6058745Y4990058D01*
X6083293Y4983480D01*
X6108707D01*
X6133255Y4990058D01*
X6155265Y5002765D01*
X6173235Y5020735D01*
X6185942Y5042745D01*
X6192520Y5067293D01*
Y5092707D01*
X6185942Y5117255D01*
X6173235Y5139265D01*
X6155265Y5157235D01*
X6133255Y5169942D01*
X6108707Y5176520D01*
D02*
G37*
G36*
X5854707D02*
X5829293D01*
X5804745Y5169942D01*
X5782735Y5157235D01*
X5764765Y5139265D01*
X5752058Y5117255D01*
X5745480Y5092707D01*
Y5067293D01*
X5752058Y5042745D01*
X5764765Y5020735D01*
X5782735Y5002765D01*
X5804745Y4990058D01*
X5829293Y4983480D01*
X5854707D01*
X5879255Y4990058D01*
X5901265Y5002765D01*
X5919235Y5020735D01*
X5931942Y5042745D01*
X5938520Y5067293D01*
Y5092707D01*
X5931942Y5117255D01*
X5919235Y5139265D01*
X5901265Y5157235D01*
X5879255Y5169942D01*
X5854707Y5176520D01*
D02*
G37*
G36*
X5346707D02*
X5321293D01*
X5296745Y5169942D01*
X5274735Y5157235D01*
X5256765Y5139265D01*
X5244058Y5117255D01*
X5237480Y5092707D01*
Y5067293D01*
X5244058Y5042745D01*
X5256765Y5020735D01*
X5274735Y5002765D01*
X5296745Y4990058D01*
X5321293Y4983480D01*
X5346707D01*
X5371255Y4990058D01*
X5393265Y5002765D01*
X5411235Y5020735D01*
X5423942Y5042745D01*
X5430520Y5067293D01*
Y5092707D01*
X5423942Y5117255D01*
X5411235Y5139265D01*
X5393265Y5157235D01*
X5371255Y5169942D01*
X5346707Y5176520D01*
D02*
G37*
G36*
X5092707D02*
X5067293D01*
X5042745Y5169942D01*
X5020735Y5157235D01*
X5002765Y5139265D01*
X4990058Y5117255D01*
X4983480Y5092707D01*
Y5067293D01*
X4990058Y5042745D01*
X5002765Y5020735D01*
X5020735Y5002765D01*
X5042745Y4990058D01*
X5067293Y4983480D01*
X5092707D01*
X5117255Y4990058D01*
X5139265Y5002765D01*
X5157235Y5020735D01*
X5169942Y5042745D01*
X5176520Y5067293D01*
Y5092707D01*
X5169942Y5117255D01*
X5157235Y5139265D01*
X5139265Y5157235D01*
X5117255Y5169942D01*
X5092707Y5176520D01*
D02*
G37*
G36*
X4838707D02*
X4813293D01*
X4788745Y5169942D01*
X4766735Y5157235D01*
X4748765Y5139265D01*
X4736058Y5117255D01*
X4729480Y5092707D01*
Y5067293D01*
X4736058Y5042745D01*
X4748765Y5020735D01*
X4766735Y5002765D01*
X4788745Y4990058D01*
X4813293Y4983480D01*
X4838707D01*
X4863255Y4990058D01*
X4885265Y5002765D01*
X4903235Y5020735D01*
X4915942Y5042745D01*
X4922520Y5067293D01*
Y5092707D01*
X4915942Y5117255D01*
X4903235Y5139265D01*
X4885265Y5157235D01*
X4863255Y5169942D01*
X4838707Y5176520D01*
D02*
G37*
G36*
X4584707D02*
X4559293D01*
X4534745Y5169942D01*
X4512735Y5157235D01*
X4494765Y5139265D01*
X4482058Y5117255D01*
X4475480Y5092707D01*
Y5067293D01*
X4482058Y5042745D01*
X4494765Y5020735D01*
X4512735Y5002765D01*
X4534745Y4990058D01*
X4559293Y4983480D01*
X4584707D01*
X4609255Y4990058D01*
X4631265Y5002765D01*
X4649235Y5020735D01*
X4661942Y5042745D01*
X4668520Y5067293D01*
Y5092707D01*
X4661942Y5117255D01*
X4649235Y5139265D01*
X4631265Y5157235D01*
X4609255Y5169942D01*
X4584707Y5176520D01*
D02*
G37*
G36*
X4262120D02*
X4069080D01*
Y4983480D01*
X4262120D01*
Y5176520D01*
D02*
G37*
G36*
X3924307D02*
X3898893D01*
X3874345Y5169942D01*
X3852335Y5157235D01*
X3834365Y5139265D01*
X3821658Y5117255D01*
X3815080Y5092707D01*
Y5067293D01*
X3821658Y5042745D01*
X3834365Y5020735D01*
X3852335Y5002765D01*
X3874345Y4990058D01*
X3898893Y4983480D01*
X3924307D01*
X3948855Y4990058D01*
X3970865Y5002765D01*
X3988835Y5020735D01*
X4001542Y5042745D01*
X4008120Y5067293D01*
Y5092707D01*
X4001542Y5117255D01*
X3988835Y5139265D01*
X3970865Y5157235D01*
X3948855Y5169942D01*
X3924307Y5176520D01*
D02*
G37*
G36*
X3670307D02*
X3644893D01*
X3620345Y5169942D01*
X3598335Y5157235D01*
X3580365Y5139265D01*
X3567658Y5117255D01*
X3561080Y5092707D01*
Y5067293D01*
X3567658Y5042745D01*
X3580365Y5020735D01*
X3598335Y5002765D01*
X3620345Y4990058D01*
X3644893Y4983480D01*
X3670307D01*
X3694855Y4990058D01*
X3716865Y5002765D01*
X3734835Y5020735D01*
X3747542Y5042745D01*
X3754120Y5067293D01*
Y5092707D01*
X3747542Y5117255D01*
X3734835Y5139265D01*
X3716865Y5157235D01*
X3694855Y5169942D01*
X3670307Y5176520D01*
D02*
G37*
G36*
X3416307D02*
X3390893D01*
X3366345Y5169942D01*
X3344335Y5157235D01*
X3326365Y5139265D01*
X3313658Y5117255D01*
X3307080Y5092707D01*
Y5067293D01*
X3313658Y5042745D01*
X3326365Y5020735D01*
X3344335Y5002765D01*
X3366345Y4990058D01*
X3390893Y4983480D01*
X3416307D01*
X3440855Y4990058D01*
X3462865Y5002765D01*
X3480835Y5020735D01*
X3493542Y5042745D01*
X3500120Y5067293D01*
Y5092707D01*
X3493542Y5117255D01*
X3480835Y5139265D01*
X3462865Y5157235D01*
X3440855Y5169942D01*
X3416307Y5176520D01*
D02*
G37*
G36*
X2400307D02*
X2374893D01*
X2350345Y5169942D01*
X2328335Y5157235D01*
X2310365Y5139265D01*
X2297658Y5117255D01*
X2291080Y5092707D01*
Y5067293D01*
X2297658Y5042745D01*
X2310365Y5020735D01*
X2328335Y5002765D01*
X2350345Y4990058D01*
X2374893Y4983480D01*
X2400307D01*
X2424855Y4990058D01*
X2446865Y5002765D01*
X2464835Y5020735D01*
X2477542Y5042745D01*
X2484120Y5067293D01*
Y5092707D01*
X2477542Y5117255D01*
X2464835Y5139265D01*
X2446865Y5157235D01*
X2424855Y5169942D01*
X2400307Y5176520D01*
D02*
G37*
G36*
X2146307D02*
X2120893D01*
X2096345Y5169942D01*
X2074335Y5157235D01*
X2056365Y5139265D01*
X2043658Y5117255D01*
X2037080Y5092707D01*
Y5067293D01*
X2043658Y5042745D01*
X2056365Y5020735D01*
X2074335Y5002765D01*
X2096345Y4990058D01*
X2120893Y4983480D01*
X2146307D01*
X2170855Y4990058D01*
X2192865Y5002765D01*
X2210835Y5020735D01*
X2223542Y5042745D01*
X2230120Y5067293D01*
Y5092707D01*
X2223542Y5117255D01*
X2210835Y5139265D01*
X2192865Y5157235D01*
X2170855Y5169942D01*
X2146307Y5176520D01*
D02*
G37*
G36*
X1892307D02*
X1866893D01*
X1842345Y5169942D01*
X1820335Y5157235D01*
X1802365Y5139265D01*
X1789658Y5117255D01*
X1783080Y5092707D01*
Y5067293D01*
X1789658Y5042745D01*
X1802365Y5020735D01*
X1820335Y5002765D01*
X1842345Y4990058D01*
X1866893Y4983480D01*
X1892307D01*
X1916855Y4990058D01*
X1938865Y5002765D01*
X1956835Y5020735D01*
X1969542Y5042745D01*
X1976120Y5067293D01*
Y5092707D01*
X1969542Y5117255D01*
X1956835Y5139265D01*
X1938865Y5157235D01*
X1916855Y5169942D01*
X1892307Y5176520D01*
D02*
G37*
G36*
X2739978Y5054600D02*
X2667000D01*
Y4981622D01*
X2680816Y4985324D01*
X2703984Y4998700D01*
X2722900Y5017616D01*
X2736276Y5040784D01*
X2739978Y5054600D01*
D02*
G37*
G36*
X2616200D02*
X2543222D01*
X2546924Y5040784D01*
X2560300Y5017616D01*
X2579216Y4998700D01*
X2602384Y4985324D01*
X2616200Y4981622D01*
Y5054600D01*
D02*
G37*
G36*
X1541760Y5260320D02*
X1506240D01*
X1471403Y5253390D01*
X1438586Y5239797D01*
X1409053Y5220064D01*
X1383936Y5194947D01*
X1364203Y5165414D01*
X1350610Y5132597D01*
X1343680Y5097760D01*
Y5062240D01*
X1350610Y5027403D01*
X1364203Y4994586D01*
X1383936Y4965053D01*
X1409053Y4939936D01*
X1438586Y4920203D01*
X1471403Y4906610D01*
X1506240Y4899680D01*
X1541760D01*
X1576597Y4906610D01*
X1609414Y4920203D01*
X1638947Y4939936D01*
X1664064Y4965053D01*
X1683797Y4994586D01*
X1697390Y5027403D01*
X1704320Y5062240D01*
Y5097760D01*
X1697390Y5132597D01*
X1683797Y5165414D01*
X1664064Y5194947D01*
X1638947Y5220064D01*
X1609414Y5239797D01*
X1576597Y5253390D01*
X1541760Y5260320D01*
D02*
G37*
G36*
X7529900Y3529400D02*
X7454900D01*
Y3454400D01*
X7529900D01*
Y3529400D01*
D02*
G37*
G36*
X7404100D02*
X7329100D01*
Y3454400D01*
X7404100D01*
Y3529400D01*
D02*
G37*
G36*
X5600707Y5176520D02*
X5575293D01*
X5550745Y5169942D01*
X5528735Y5157235D01*
X5510765Y5139265D01*
X5498058Y5117255D01*
X5491480Y5092707D01*
Y5067293D01*
X5498058Y5042745D01*
X5510765Y5020735D01*
X5528735Y5002765D01*
X5550745Y4990058D01*
X5554333Y4989096D01*
Y4254500D01*
X5556896Y4241616D01*
X5564194Y4230694D01*
X6629969Y3164919D01*
X6624708Y3152219D01*
X6603621D01*
X6575843Y3144776D01*
X6550938Y3130396D01*
X6530603Y3110061D01*
X6516224Y3085156D01*
X6508780Y3057378D01*
Y3028620D01*
X6516224Y3000841D01*
X6530603Y2975936D01*
X6550938Y2955601D01*
X6575843Y2941222D01*
X6603621Y2933779D01*
X6632380D01*
X6660158Y2941222D01*
X6685063Y2955601D01*
X6705398Y2975936D01*
X6719777Y3000841D01*
X6727220Y3028620D01*
Y3049707D01*
X6739920Y3054967D01*
X7397680Y2397208D01*
Y2254180D01*
X7588320D01*
Y2444820D01*
X7445292D01*
X6490250Y3399862D01*
X6498346Y3409726D01*
X6518586Y3396203D01*
X6551403Y3382610D01*
X6586240Y3375680D01*
X6621760D01*
X6656597Y3382610D01*
X6689414Y3396203D01*
X6718947Y3415936D01*
X6744064Y3441053D01*
X6763797Y3470586D01*
X6777390Y3503403D01*
X6784320Y3538240D01*
Y3573760D01*
X6777390Y3608597D01*
X6763797Y3641414D01*
X6744064Y3670947D01*
X6718947Y3696064D01*
X6689414Y3715797D01*
X6656597Y3729390D01*
X6621760Y3736320D01*
X6586240D01*
X6551403Y3729390D01*
X6518586Y3715797D01*
X6489053Y3696064D01*
X6463936Y3670947D01*
X6444203Y3641414D01*
X6430610Y3608597D01*
X6423680Y3573760D01*
Y3538240D01*
X6430610Y3503403D01*
X6444203Y3470586D01*
X6457726Y3450346D01*
X6447862Y3442250D01*
X5621667Y4268445D01*
Y4989096D01*
X5625255Y4990058D01*
X5647265Y5002765D01*
X5665235Y5020735D01*
X5677942Y5042745D01*
X5684520Y5067293D01*
Y5092707D01*
X5677942Y5117255D01*
X5665235Y5139265D01*
X5647265Y5157235D01*
X5625255Y5169942D01*
X5600707Y5176520D01*
D02*
G37*
G36*
X7950049Y3524320D02*
X7924951D01*
X7900708Y3517824D01*
X7878972Y3505275D01*
X7861225Y3487528D01*
X7848676Y3465792D01*
X7842180Y3441549D01*
Y3416451D01*
X7848676Y3392208D01*
X7861225Y3370472D01*
X7878972Y3352725D01*
X7900708Y3340176D01*
X7924951Y3333680D01*
X7950049D01*
X7974292Y3340176D01*
X7996028Y3352725D01*
X8013775Y3370472D01*
X8026324Y3392208D01*
X8032820Y3416451D01*
Y3441549D01*
X8026324Y3465792D01*
X8013775Y3487528D01*
X7996028Y3505275D01*
X7974292Y3517824D01*
X7950049Y3524320D01*
D02*
G37*
G36*
X7696049D02*
X7670951D01*
X7646708Y3517824D01*
X7624972Y3505275D01*
X7607225Y3487528D01*
X7594676Y3465792D01*
X7588180Y3441549D01*
Y3416451D01*
X7594676Y3392208D01*
X7607225Y3370472D01*
X7624972Y3352725D01*
X7646708Y3340176D01*
X7670951Y3333680D01*
X7696049D01*
X7720292Y3340176D01*
X7742028Y3352725D01*
X7759775Y3370472D01*
X7772324Y3392208D01*
X7778820Y3416451D01*
Y3441549D01*
X7772324Y3465792D01*
X7759775Y3487528D01*
X7742028Y3505275D01*
X7720292Y3517824D01*
X7696049Y3524320D01*
D02*
G37*
G36*
X7529900Y3403600D02*
X7454900D01*
Y3328600D01*
X7529900D01*
Y3403600D01*
D02*
G37*
G36*
X7404100D02*
X7329100D01*
Y3328600D01*
X7404100D01*
Y3403600D01*
D02*
G37*
G36*
X6378380Y3152219D02*
X6349621D01*
X6321843Y3144776D01*
X6296938Y3130396D01*
X6276603Y3110061D01*
X6262224Y3085156D01*
X6254780Y3057378D01*
Y3028620D01*
X6262224Y3000841D01*
X6276603Y2975936D01*
X6296938Y2955601D01*
X6321843Y2941222D01*
X6349621Y2933779D01*
X6378380D01*
X6406158Y2941222D01*
X6431063Y2955601D01*
X6451398Y2975936D01*
X6465777Y3000841D01*
X6473220Y3028620D01*
Y3057378D01*
X6465777Y3085156D01*
X6451398Y3110061D01*
X6431063Y3130396D01*
X6406158Y3144776D01*
X6378380Y3152219D01*
D02*
G37*
G36*
X8597900Y2954636D02*
Y2882900D01*
X8669636D01*
X8666058Y2896253D01*
X8652840Y2919147D01*
X8634147Y2937840D01*
X8611253Y2951058D01*
X8597900Y2954636D01*
D02*
G37*
G36*
X8547100D02*
X8533747Y2951058D01*
X8510853Y2937840D01*
X8492160Y2919147D01*
X8478942Y2896253D01*
X8475364Y2882900D01*
X8547100D01*
Y2954636D01*
D02*
G37*
G36*
X8669636Y2832100D02*
X8597900D01*
Y2760364D01*
X8611253Y2763942D01*
X8634147Y2777160D01*
X8652840Y2795853D01*
X8666058Y2818747D01*
X8669636Y2832100D01*
D02*
G37*
G36*
X8547100D02*
X8475364D01*
X8478942Y2818747D01*
X8492160Y2795853D01*
X8510853Y2777160D01*
X8533747Y2763942D01*
X8547100Y2760364D01*
Y2832100D01*
D02*
G37*
G36*
X6632380Y2898219D02*
X6603621D01*
X6575843Y2890776D01*
X6550938Y2876396D01*
X6530603Y2856061D01*
X6516224Y2831156D01*
X6508780Y2803378D01*
Y2774620D01*
X6516224Y2746841D01*
X6530603Y2721936D01*
X6550938Y2701601D01*
X6575843Y2687222D01*
X6603621Y2679779D01*
X6632380D01*
X6660158Y2687222D01*
X6685063Y2701601D01*
X6705398Y2721936D01*
X6719777Y2746841D01*
X6727220Y2774620D01*
Y2803378D01*
X6719777Y2831156D01*
X6705398Y2856061D01*
X6685063Y2876396D01*
X6660158Y2890776D01*
X6632380Y2898219D01*
D02*
G37*
G36*
X6378380D02*
X6349621D01*
X6321843Y2890776D01*
X6296938Y2876396D01*
X6276603Y2856061D01*
X6262224Y2831156D01*
X6254780Y2803378D01*
Y2774620D01*
X6262224Y2746841D01*
X6276603Y2721936D01*
X6296938Y2701601D01*
X6321843Y2687222D01*
X6349621Y2679779D01*
X6378380D01*
X6406158Y2687222D01*
X6431063Y2701601D01*
X6451398Y2721936D01*
X6465777Y2746841D01*
X6473220Y2774620D01*
Y2803378D01*
X6465777Y2831156D01*
X6451398Y2856061D01*
X6431063Y2876396D01*
X6406158Y2890776D01*
X6378380Y2898219D01*
D02*
G37*
G36*
X3876074Y2810820D02*
X3854926D01*
X3834498Y2805346D01*
X3816182Y2794772D01*
X3801228Y2779818D01*
X3790654Y2761502D01*
X3785180Y2741074D01*
Y2719926D01*
X3790654Y2699498D01*
X3801228Y2681182D01*
X3816182Y2666228D01*
X3834498Y2655654D01*
X3854926Y2650180D01*
X3876074D01*
X3896502Y2655654D01*
X3914818Y2666228D01*
X3929772Y2681182D01*
X3940346Y2699498D01*
X3945820Y2719926D01*
Y2741074D01*
X3940346Y2761502D01*
X3929772Y2779818D01*
X3914818Y2794772D01*
X3896502Y2805346D01*
X3876074Y2810820D01*
D02*
G37*
G36*
X3376074D02*
X3354926D01*
X3334498Y2805346D01*
X3316182Y2794772D01*
X3301228Y2779818D01*
X3290654Y2761502D01*
X3285180Y2741074D01*
Y2719926D01*
X3290654Y2699498D01*
X3301228Y2681182D01*
X3316182Y2666228D01*
X3334498Y2655654D01*
X3354926Y2650180D01*
X3376074D01*
X3396502Y2655654D01*
X3414818Y2666228D01*
X3429772Y2681182D01*
X3440346Y2699498D01*
X3445820Y2719926D01*
Y2741074D01*
X3440346Y2761502D01*
X3429772Y2779818D01*
X3414818Y2794772D01*
X3396502Y2805346D01*
X3376074Y2810820D01*
D02*
G37*
G36*
X8667820Y2698820D02*
X8477180D01*
Y2508180D01*
X8667820D01*
Y2698820D01*
D02*
G37*
G36*
X4464400Y2485400D02*
X4406900D01*
Y2427900D01*
X4464400D01*
Y2485400D01*
D02*
G37*
G36*
X4356100D02*
X4298600D01*
Y2427900D01*
X4356100D01*
Y2485400D01*
D02*
G37*
G36*
X6632380Y2644219D02*
X6603621D01*
X6575843Y2636776D01*
X6550938Y2622396D01*
X6530603Y2602061D01*
X6516224Y2577156D01*
X6508780Y2549378D01*
Y2520620D01*
X6516224Y2492841D01*
X6530603Y2467936D01*
X6550938Y2447601D01*
X6575843Y2433222D01*
X6603621Y2425779D01*
X6632380D01*
X6660158Y2433222D01*
X6685063Y2447601D01*
X6705398Y2467936D01*
X6719777Y2492841D01*
X6727220Y2520620D01*
Y2549378D01*
X6719777Y2577156D01*
X6705398Y2602061D01*
X6685063Y2622396D01*
X6660158Y2636776D01*
X6632380Y2644219D01*
D02*
G37*
G36*
X6378380D02*
X6349621D01*
X6321843Y2636776D01*
X6296938Y2622396D01*
X6276603Y2602061D01*
X6262224Y2577156D01*
X6254780Y2549378D01*
Y2520620D01*
X6262224Y2492841D01*
X6276603Y2467936D01*
X6296938Y2447601D01*
X6321843Y2433222D01*
X6349621Y2425779D01*
X6378380D01*
X6406158Y2433222D01*
X6431063Y2447601D01*
X6451398Y2467936D01*
X6465777Y2492841D01*
X6473220Y2520620D01*
Y2549378D01*
X6465777Y2577156D01*
X6451398Y2602061D01*
X6431063Y2622396D01*
X6406158Y2636776D01*
X6378380Y2644219D01*
D02*
G37*
G36*
X4464400Y2377100D02*
X4406900D01*
Y2319600D01*
X4464400D01*
Y2377100D01*
D02*
G37*
G36*
X4356100D02*
X4298600D01*
Y2319600D01*
X4356100D01*
Y2377100D01*
D02*
G37*
G36*
X7505549Y2190820D02*
X7480451D01*
X7456208Y2184324D01*
X7434472Y2171775D01*
X7416725Y2154028D01*
X7404176Y2132292D01*
X7397680Y2108049D01*
Y2082951D01*
X7404176Y2058708D01*
X7416725Y2036972D01*
X7434472Y2019225D01*
X7456208Y2006676D01*
X7480451Y2000180D01*
X7505549D01*
X7529792Y2006676D01*
X7551528Y2019225D01*
X7569275Y2036972D01*
X7581824Y2058708D01*
X7588320Y2082951D01*
Y2108049D01*
X7581824Y2132292D01*
X7569275Y2154028D01*
X7551528Y2171775D01*
X7529792Y2184324D01*
X7505549Y2190820D01*
D02*
G37*
G36*
X7518400Y1938636D02*
Y1866900D01*
X7590136D01*
X7586558Y1880253D01*
X7573340Y1903147D01*
X7554647Y1921840D01*
X7531753Y1935058D01*
X7518400Y1938636D01*
D02*
G37*
G36*
X7467600D02*
X7454247Y1935058D01*
X7431353Y1921840D01*
X7412660Y1903147D01*
X7399442Y1880253D01*
X7395864Y1866900D01*
X7467600D01*
Y1938636D01*
D02*
G37*
G36*
X7590136Y1816100D02*
X7518400D01*
Y1744364D01*
X7531753Y1747942D01*
X7554647Y1761160D01*
X7573340Y1779853D01*
X7586558Y1802747D01*
X7590136Y1816100D01*
D02*
G37*
G36*
X7467600D02*
X7395864D01*
X7399442Y1802747D01*
X7412660Y1779853D01*
X7431353Y1761160D01*
X7454247Y1747942D01*
X7467600Y1744364D01*
Y1816100D01*
D02*
G37*
G36*
X8597900Y1684636D02*
Y1612900D01*
X8669636D01*
X8666058Y1626253D01*
X8652840Y1649147D01*
X8634147Y1667840D01*
X8611253Y1681058D01*
X8597900Y1684636D01*
D02*
G37*
G36*
X8547100D02*
X8533747Y1681058D01*
X8510853Y1667840D01*
X8492160Y1649147D01*
X8478942Y1626253D01*
X8475364Y1612900D01*
X8547100D01*
Y1684636D01*
D02*
G37*
G36*
X8669636Y1562100D02*
X8597900D01*
Y1490364D01*
X8611253Y1493942D01*
X8634147Y1507160D01*
X8652840Y1525853D01*
X8666058Y1548747D01*
X8669636Y1562100D01*
D02*
G37*
G36*
X8547100D02*
X8475364D01*
X8478942Y1548747D01*
X8492160Y1525853D01*
X8510853Y1507160D01*
X8533747Y1493942D01*
X8547100Y1490364D01*
Y1562100D01*
D02*
G37*
G36*
X8667820Y1428820D02*
X8477180D01*
Y1238180D01*
X8667820D01*
Y1428820D01*
D02*
G37*
G36*
X7404100Y798900D02*
X7329100D01*
Y723900D01*
X7404100D01*
Y798900D01*
D02*
G37*
G36*
X8204049Y793820D02*
X8178951D01*
X8154708Y787324D01*
X8132972Y774775D01*
X8115225Y757028D01*
X8102676Y735292D01*
X8096180Y711049D01*
Y685951D01*
X8102676Y661708D01*
X8115225Y639972D01*
X8132972Y622225D01*
X8154708Y609676D01*
X8178951Y603180D01*
X8204049D01*
X8228292Y609676D01*
X8250028Y622225D01*
X8267775Y639972D01*
X8280324Y661708D01*
X8286820Y685951D01*
Y711049D01*
X8280324Y735292D01*
X8267775Y757028D01*
X8250028Y774775D01*
X8228292Y787324D01*
X8204049Y793820D01*
D02*
G37*
G36*
X3162307Y5176520D02*
X3136893D01*
X3112345Y5169942D01*
X3090335Y5157235D01*
X3072365Y5139265D01*
X3059658Y5117255D01*
X3053080Y5092707D01*
Y5067293D01*
X3059658Y5042745D01*
X3072365Y5020735D01*
X3090335Y5002765D01*
X3112345Y4990058D01*
X3136893Y4983480D01*
X3162307D01*
X3186855Y4990058D01*
X3190073Y4991915D01*
X5316773Y2865214D01*
X5327696Y2857916D01*
X5340580Y2855353D01*
X5733034D01*
X7850294Y738094D01*
X7848676Y735292D01*
X7842180Y711049D01*
Y685951D01*
X7848676Y661708D01*
X7861225Y639972D01*
X7878972Y622225D01*
X7900708Y609676D01*
X7924951Y603180D01*
X7950049D01*
X7974292Y609676D01*
X7996028Y622225D01*
X8013775Y639972D01*
X8026324Y661708D01*
X8032820Y685951D01*
Y711049D01*
X8026324Y735292D01*
X8013775Y757028D01*
X7996028Y774775D01*
X7974292Y787324D01*
X7950049Y793820D01*
X7924951D01*
X7900708Y787324D01*
X7897906Y785706D01*
X5770786Y2912827D01*
X5759864Y2920124D01*
X5746980Y2922687D01*
X5354525D01*
X3237685Y5039527D01*
X3239542Y5042745D01*
X3246120Y5067293D01*
Y5092707D01*
X3239542Y5117255D01*
X3226835Y5139265D01*
X3208865Y5157235D01*
X3186855Y5169942D01*
X3162307Y5176520D01*
D02*
G37*
G36*
X2908307D02*
X2882893D01*
X2858345Y5169942D01*
X2836335Y5157235D01*
X2818365Y5139265D01*
X2805658Y5117255D01*
X2799080Y5092707D01*
Y5067293D01*
X2805658Y5042745D01*
X2818365Y5020735D01*
X2836335Y5002765D01*
X2858345Y4990058D01*
X2882893Y4983480D01*
X2908307D01*
X2932855Y4990058D01*
X2936073Y4991915D01*
X5221294Y2706694D01*
X5232216Y2699396D01*
X5245100Y2696833D01*
X5637555D01*
X7522788Y811600D01*
X7517527Y798900D01*
X7454900D01*
Y723900D01*
X7529900D01*
Y786527D01*
X7542600Y791788D01*
X7596294Y738094D01*
X7594676Y735292D01*
X7588180Y711049D01*
Y685951D01*
X7594676Y661708D01*
X7607225Y639972D01*
X7624972Y622225D01*
X7646708Y609676D01*
X7670951Y603180D01*
X7696049D01*
X7720292Y609676D01*
X7742028Y622225D01*
X7759775Y639972D01*
X7772324Y661708D01*
X7778820Y685951D01*
Y711049D01*
X7772324Y735292D01*
X7759775Y757028D01*
X7742028Y774775D01*
X7720292Y787324D01*
X7696049Y793820D01*
X7670951D01*
X7646708Y787324D01*
X7643906Y785706D01*
X5675306Y2754306D01*
X5664384Y2761604D01*
X5651500Y2764167D01*
X5259045D01*
X2983685Y5039527D01*
X2985542Y5042745D01*
X2992120Y5067293D01*
Y5092707D01*
X2985542Y5117255D01*
X2972835Y5139265D01*
X2954865Y5157235D01*
X2932855Y5169942D01*
X2908307Y5176520D01*
D02*
G37*
G36*
X7529900Y673100D02*
X7454900D01*
Y598100D01*
X7529900D01*
Y673100D01*
D02*
G37*
G36*
X7404100D02*
X7329100D01*
Y598100D01*
X7404100D01*
Y673100D01*
D02*
G37*
G36*
X6621760Y942320D02*
X6586240D01*
X6551403Y935390D01*
X6518586Y921797D01*
X6489053Y902064D01*
X6463936Y876947D01*
X6444203Y847414D01*
X6430610Y814597D01*
X6423680Y779760D01*
Y744240D01*
X6430610Y709403D01*
X6444203Y676586D01*
X6463936Y647053D01*
X6489053Y621936D01*
X6518586Y602203D01*
X6551403Y588610D01*
X6586240Y581680D01*
X6621760D01*
X6656597Y588610D01*
X6689414Y602203D01*
X6718947Y621936D01*
X6744064Y647053D01*
X6763797Y676586D01*
X6777390Y709403D01*
X6784320Y744240D01*
Y779760D01*
X6777390Y814597D01*
X6763797Y847414D01*
X6744064Y876947D01*
X6718947Y902064D01*
X6689414Y921797D01*
X6656597Y935390D01*
X6621760Y942320D01*
D02*
G37*
G36*
X4343400Y352378D02*
Y279400D01*
X4416378D01*
X4412676Y293216D01*
X4399300Y316384D01*
X4380384Y335300D01*
X4357216Y348676D01*
X4343400Y352378D01*
D02*
G37*
G36*
X4089400D02*
Y279400D01*
X4162378D01*
X4158676Y293216D01*
X4145300Y316384D01*
X4126384Y335300D01*
X4103216Y348676D01*
X4089400Y352378D01*
D02*
G37*
G36*
X4292600D02*
X4278784Y348676D01*
X4255616Y335300D01*
X4236700Y316384D01*
X4223324Y293216D01*
X4219622Y279400D01*
X4292600D01*
Y352378D01*
D02*
G37*
G36*
X4038600D02*
X4024784Y348676D01*
X4001616Y335300D01*
X3982700Y316384D01*
X3969324Y293216D01*
X3965622Y279400D01*
X4038600D01*
Y352378D01*
D02*
G37*
G36*
X6362707Y350520D02*
X6337293D01*
X6312745Y343942D01*
X6290735Y331235D01*
X6272765Y313265D01*
X6260058Y291255D01*
X6253480Y266707D01*
Y241293D01*
X6260058Y216745D01*
X6272765Y194735D01*
X6290735Y176765D01*
X6312745Y164058D01*
X6337293Y157480D01*
X6362707D01*
X6387255Y164058D01*
X6409265Y176765D01*
X6427235Y194735D01*
X6439942Y216745D01*
X6446520Y241293D01*
Y266707D01*
X6439942Y291255D01*
X6427235Y313265D01*
X6409265Y331235D01*
X6387255Y343942D01*
X6362707Y350520D01*
D02*
G37*
G36*
X6108707D02*
X6083293D01*
X6058745Y343942D01*
X6036735Y331235D01*
X6018765Y313265D01*
X6006058Y291255D01*
X5999480Y266707D01*
Y241293D01*
X6006058Y216745D01*
X6018765Y194735D01*
X6036735Y176765D01*
X6058745Y164058D01*
X6083293Y157480D01*
X6108707D01*
X6133255Y164058D01*
X6155265Y176765D01*
X6173235Y194735D01*
X6185942Y216745D01*
X6192520Y241293D01*
Y266707D01*
X6185942Y291255D01*
X6173235Y313265D01*
X6155265Y331235D01*
X6133255Y343942D01*
X6108707Y350520D01*
D02*
G37*
G36*
X5854707D02*
X5829293D01*
X5804745Y343942D01*
X5782735Y331235D01*
X5764765Y313265D01*
X5752058Y291255D01*
X5745480Y266707D01*
Y241293D01*
X5752058Y216745D01*
X5764765Y194735D01*
X5782735Y176765D01*
X5804745Y164058D01*
X5829293Y157480D01*
X5854707D01*
X5879255Y164058D01*
X5901265Y176765D01*
X5919235Y194735D01*
X5931942Y216745D01*
X5938520Y241293D01*
Y266707D01*
X5931942Y291255D01*
X5919235Y313265D01*
X5901265Y331235D01*
X5879255Y343942D01*
X5854707Y350520D01*
D02*
G37*
G36*
X5600707D02*
X5575293D01*
X5550745Y343942D01*
X5528735Y331235D01*
X5510765Y313265D01*
X5498058Y291255D01*
X5491480Y266707D01*
Y241293D01*
X5498058Y216745D01*
X5510765Y194735D01*
X5528735Y176765D01*
X5550745Y164058D01*
X5575293Y157480D01*
X5600707D01*
X5625255Y164058D01*
X5647265Y176765D01*
X5665235Y194735D01*
X5677942Y216745D01*
X5684520Y241293D01*
Y266707D01*
X5677942Y291255D01*
X5665235Y313265D01*
X5647265Y331235D01*
X5625255Y343942D01*
X5600707Y350520D01*
D02*
G37*
G36*
X4391745Y3136320D02*
X4371255D01*
X4351462Y3131017D01*
X4333717Y3120772D01*
X4319228Y3106283D01*
X4308983Y3088538D01*
X4303680Y3068745D01*
Y3048255D01*
X4308983Y3028463D01*
X4319228Y3010717D01*
X4333717Y2996228D01*
X4351462Y2985983D01*
X4371255Y2980680D01*
X4391745D01*
X4407489Y2984899D01*
X5300333Y2092055D01*
Y344904D01*
X5296745Y343942D01*
X5274735Y331235D01*
X5256765Y313265D01*
X5244058Y291255D01*
X5237480Y266707D01*
Y241293D01*
X5244058Y216745D01*
X5256765Y194735D01*
X5274735Y176765D01*
X5296745Y164058D01*
X5321293Y157480D01*
X5346707D01*
X5371255Y164058D01*
X5393265Y176765D01*
X5411235Y194735D01*
X5423942Y216745D01*
X5430520Y241293D01*
Y266707D01*
X5423942Y291255D01*
X5411235Y313265D01*
X5393265Y331235D01*
X5371255Y343942D01*
X5367667Y344904D01*
Y2106000D01*
X5365104Y2118884D01*
X5357806Y2129806D01*
X4455102Y3032511D01*
X4459320Y3048255D01*
Y3068745D01*
X4454017Y3088538D01*
X4443772Y3106283D01*
X4429283Y3120772D01*
X4411538Y3131017D01*
X4391745Y3136320D01*
D02*
G37*
G36*
X5091035Y1925320D02*
X5068965D01*
X5047647Y1919608D01*
X5028533Y1908573D01*
X5012927Y1892967D01*
X5001892Y1873853D01*
X4996180Y1852535D01*
Y1830465D01*
X5001892Y1809147D01*
X5012927Y1790033D01*
X5028533Y1774427D01*
X5046333Y1764151D01*
Y350520D01*
X4983480D01*
Y157480D01*
X5176520D01*
Y350520D01*
X5113667D01*
Y1764151D01*
X5131467Y1774427D01*
X5147073Y1790033D01*
X5158108Y1809147D01*
X5163820Y1830465D01*
Y1852535D01*
X5158108Y1873853D01*
X5147073Y1892967D01*
X5131467Y1908573D01*
X5112353Y1919608D01*
X5091035Y1925320D01*
D02*
G37*
G36*
X4668520Y350520D02*
X4475480D01*
Y157480D01*
X4668520D01*
Y350520D01*
D02*
G37*
G36*
X3822707D02*
X3797293D01*
X3772745Y343942D01*
X3750735Y331235D01*
X3732765Y313265D01*
X3720058Y291255D01*
X3713480Y266707D01*
Y241293D01*
X3720058Y216745D01*
X3732765Y194735D01*
X3750735Y176765D01*
X3772745Y164058D01*
X3797293Y157480D01*
X3822707D01*
X3847255Y164058D01*
X3869265Y176765D01*
X3887235Y194735D01*
X3899942Y216745D01*
X3906520Y241293D01*
Y266707D01*
X3899942Y291255D01*
X3887235Y313265D01*
X3869265Y331235D01*
X3847255Y343942D01*
X3822707Y350520D01*
D02*
G37*
G36*
X3568707D02*
X3543293D01*
X3518745Y343942D01*
X3496735Y331235D01*
X3478765Y313265D01*
X3466058Y291255D01*
X3459480Y266707D01*
Y241293D01*
X3466058Y216745D01*
X3478765Y194735D01*
X3496735Y176765D01*
X3518745Y164058D01*
X3543293Y157480D01*
X3568707D01*
X3593255Y164058D01*
X3615265Y176765D01*
X3633235Y194735D01*
X3645942Y216745D01*
X3652520Y241293D01*
Y266707D01*
X3645942Y291255D01*
X3633235Y313265D01*
X3615265Y331235D01*
X3593255Y343942D01*
X3568707Y350520D01*
D02*
G37*
G36*
X3314707D02*
X3289293D01*
X3264745Y343942D01*
X3242735Y331235D01*
X3224765Y313265D01*
X3212058Y291255D01*
X3205480Y266707D01*
Y241293D01*
X3212058Y216745D01*
X3224765Y194735D01*
X3242735Y176765D01*
X3264745Y164058D01*
X3289293Y157480D01*
X3314707D01*
X3339255Y164058D01*
X3361265Y176765D01*
X3379235Y194735D01*
X3391942Y216745D01*
X3398520Y241293D01*
Y266707D01*
X3391942Y291255D01*
X3379235Y313265D01*
X3361265Y331235D01*
X3339255Y343942D01*
X3314707Y350520D01*
D02*
G37*
G36*
X3060707D02*
X3035293D01*
X3010745Y343942D01*
X2988735Y331235D01*
X2970765Y313265D01*
X2958058Y291255D01*
X2951480Y266707D01*
Y241293D01*
X2958058Y216745D01*
X2970765Y194735D01*
X2988735Y176765D01*
X3010745Y164058D01*
X3035293Y157480D01*
X3060707D01*
X3085255Y164058D01*
X3107265Y176765D01*
X3125235Y194735D01*
X3137942Y216745D01*
X3144520Y241293D01*
Y266707D01*
X3137942Y291255D01*
X3125235Y313265D01*
X3107265Y331235D01*
X3085255Y343942D01*
X3060707Y350520D01*
D02*
G37*
G36*
X2806707D02*
X2781293D01*
X2756745Y343942D01*
X2734735Y331235D01*
X2716765Y313265D01*
X2704058Y291255D01*
X2697480Y266707D01*
Y241293D01*
X2704058Y216745D01*
X2716765Y194735D01*
X2734735Y176765D01*
X2756745Y164058D01*
X2781293Y157480D01*
X2806707D01*
X2831255Y164058D01*
X2853265Y176765D01*
X2871235Y194735D01*
X2883942Y216745D01*
X2890520Y241293D01*
Y266707D01*
X2883942Y291255D01*
X2871235Y313265D01*
X2853265Y331235D01*
X2831255Y343942D01*
X2806707Y350520D01*
D02*
G37*
G36*
X4416378Y228600D02*
X4343400D01*
Y155622D01*
X4357216Y159324D01*
X4380384Y172700D01*
X4399300Y191616D01*
X4412676Y214784D01*
X4416378Y228600D01*
D02*
G37*
G36*
X4162378D02*
X4089400D01*
Y155622D01*
X4103216Y159324D01*
X4126384Y172700D01*
X4145300Y191616D01*
X4158676Y214784D01*
X4162378Y228600D01*
D02*
G37*
G36*
X4292600D02*
X4219622D01*
X4223324Y214784D01*
X4236700Y191616D01*
X4255616Y172700D01*
X4278784Y159324D01*
X4292600Y155622D01*
Y228600D01*
D02*
G37*
G36*
X4038600D02*
X3965622D01*
X3969324Y214784D01*
X3982700Y191616D01*
X4001616Y172700D01*
X4024784Y159324D01*
X4038600Y155622D01*
Y228600D01*
D02*
G37*
G36*
X1414760Y434320D02*
X1379240D01*
X1344403Y427390D01*
X1311586Y413797D01*
X1282053Y394064D01*
X1256936Y368947D01*
X1237203Y339414D01*
X1223610Y306597D01*
X1216680Y271760D01*
Y236240D01*
X1223610Y201403D01*
X1237203Y168586D01*
X1256936Y139053D01*
X1282053Y113936D01*
X1311586Y94203D01*
X1344403Y80610D01*
X1379240Y73680D01*
X1414760D01*
X1449597Y80610D01*
X1482414Y94203D01*
X1511947Y113936D01*
X1537064Y139053D01*
X1556797Y168586D01*
X1570390Y201403D01*
X1577320Y236240D01*
Y271760D01*
X1570390Y306597D01*
X1556797Y339414D01*
X1537064Y368947D01*
X1511947Y394064D01*
X1482414Y413797D01*
X1449597Y427390D01*
X1414760Y434320D01*
D02*
G37*
%LPD*%
D10*
X5080000Y254000D02*
Y1841500D01*
X4381500Y3058500D02*
X5334000Y2106000D01*
Y254000D02*
Y2106000D01*
X5588000Y4254500D02*
Y5080000D01*
Y4254500D02*
X7493000Y2349500D01*
X5651500Y2730500D02*
X7683500Y698500D01*
X5245100Y2730500D02*
X5651500D01*
X5340580Y2889020D02*
X5746980D01*
X7937500Y698500D01*
X2895600Y5080000D02*
X5245100Y2730500D01*
X3149600Y5080000D02*
X5340580Y2889020D01*
D13*
X8572500Y2857500D02*
D03*
X7683500Y698500D02*
D03*
X7937500D02*
D03*
X8191500D02*
D03*
X7493000Y1841500D02*
D03*
Y2095500D02*
D03*
X7937500Y3429000D02*
D03*
X7683500D02*
D03*
X8572500Y1587500D02*
D03*
D14*
Y2603500D02*
D03*
X7493000Y2349500D02*
D03*
X8572500Y1333500D02*
D03*
D15*
X7429500Y698500D02*
D03*
Y3429000D02*
D03*
D16*
X3365500Y2730500D02*
D03*
X3865500D02*
D03*
D17*
X4381500Y3058500D02*
D03*
D18*
Y2402500D02*
D03*
D19*
X6604000Y762000D02*
D03*
Y3556000D02*
D03*
X1397000Y254000D02*
D03*
X1524000Y5080000D02*
D03*
D20*
X5080000Y254000D02*
D03*
X4165600Y5080000D02*
D03*
X6350000D02*
D03*
X4572000Y254000D02*
D03*
D21*
X5334000D02*
D03*
X5588000D02*
D03*
X5842000D02*
D03*
X6096000D02*
D03*
X6350000D02*
D03*
X3911600Y5080000D02*
D03*
X3657600D02*
D03*
X3403600D02*
D03*
X3149600D02*
D03*
X2895600D02*
D03*
X2641600D02*
D03*
X2387600D02*
D03*
X2133600D02*
D03*
X1879600D02*
D03*
X5588000D02*
D03*
X5334000D02*
D03*
X5080000D02*
D03*
X4826000D02*
D03*
X4572000D02*
D03*
X6096000D02*
D03*
X5842000D02*
D03*
X3810000Y254000D02*
D03*
X3556000D02*
D03*
X3302000D02*
D03*
X3048000D02*
D03*
X2794000D02*
D03*
X4318000D02*
D03*
X4064000D02*
D03*
D22*
X6364000Y3042999D02*
D03*
X6618000D02*
D03*
X6364000Y2788999D02*
D03*
X6618000D02*
D03*
X6364000Y2534999D02*
D03*
X6618000D02*
D03*
D23*
X5080000Y1841500D02*
D03*
%TF.MD5,ae99c72e1c5f910cf19a6b691a7a8657*%
M02*
