%TF.GenerationSoftware,Altium Limited,Altium Designer,23.6.0 (18)*%
G04 Layer_Color=8388736*
%FSLAX45Y45*%
%MOMM*%
%TF.SameCoordinates,BE964043-2EFE-40DF-B488-D83AE96C0F84*%
%TF.FilePolarity,Negative*%
%TF.FileFunction,Soldermask,Top*%
%TF.Part,Single*%
G01*
G75*
%TA.AperFunction,ComponentPad*%
%ADD17C,1.15000*%
%ADD18R,1.15000X1.15000*%
%ADD28C,1.70320*%
%ADD29R,1.70320X1.70320*%
%ADD30R,1.70320X1.70320*%
%ADD31C,1.40320*%
%TA.AperFunction,ViaPad*%
%ADD32C,3.40320*%
%TA.AperFunction,ComponentPad*%
%ADD33R,1.72720X1.72720*%
%ADD34C,1.72720*%
%ADD35C,1.98120*%
%TA.AperFunction,ViaPad*%
%ADD36C,1.47320*%
D17*
X4381500Y3058500D02*
D03*
D18*
Y2402500D02*
D03*
D28*
X8572500Y2857500D02*
D03*
X7683500Y698500D02*
D03*
X7937500D02*
D03*
X8191500D02*
D03*
X7493000Y1841500D02*
D03*
Y2095500D02*
D03*
X7937500Y3429000D02*
D03*
X7683500D02*
D03*
X8572500Y1587500D02*
D03*
D29*
Y2603500D02*
D03*
X7493000Y2349500D02*
D03*
X8572500Y1333500D02*
D03*
D30*
X7429500Y698500D02*
D03*
Y3429000D02*
D03*
D31*
X3365500Y2730500D02*
D03*
X3865500D02*
D03*
D32*
X6604000Y762000D02*
D03*
Y3556000D02*
D03*
X1397000Y254000D02*
D03*
X1524000Y5080000D02*
D03*
D33*
X5080000Y254000D02*
D03*
X4165600Y5080000D02*
D03*
X6350000D02*
D03*
X4572000Y254000D02*
D03*
D34*
X5334000D02*
D03*
X5588000D02*
D03*
X5842000D02*
D03*
X6096000D02*
D03*
X6350000D02*
D03*
X3911600Y5080000D02*
D03*
X3657600D02*
D03*
X3403600D02*
D03*
X3149600D02*
D03*
X2895600D02*
D03*
X2641600D02*
D03*
X2387600D02*
D03*
X2133600D02*
D03*
X1879600D02*
D03*
X5588000D02*
D03*
X5334000D02*
D03*
X5080000D02*
D03*
X4826000D02*
D03*
X4572000D02*
D03*
X6096000D02*
D03*
X5842000D02*
D03*
X3810000Y254000D02*
D03*
X3556000D02*
D03*
X3302000D02*
D03*
X3048000D02*
D03*
X2794000D02*
D03*
X4318000D02*
D03*
X4064000D02*
D03*
D35*
X6364000Y3042999D02*
D03*
X6618000D02*
D03*
X6364000Y2788999D02*
D03*
X6618000D02*
D03*
X6364000Y2534999D02*
D03*
X6618000D02*
D03*
D36*
X5080000Y1841500D02*
D03*
%TF.MD5,9b69449f32dbbff3492cd1efc41c252a*%
M02*
