M48
;Layer_Color=9474304
;FILE_FORMAT=2:4
INCH,LZ
;TYPE=PLATED
T1F00S00C0.0236
T2F00S00C0.0256
T3F00S00C0.0280
T4F00S00C0.0300
T5F00S00C0.0354
T6F00S00C0.1260
%
T01
X01325Y01075
X015218
T02
X01725Y009459
Y012041
T03
X02Y00725
T04
X011Y001
X012
X013
X014
X015
X016
X017
X018
X02
X021
X022
X023
X024
X025
X019Y02
X018
X0164
X0154
X0144
X0134
X0124
X0114
X0104
X0094
X0084
X0074
X02
X021
X022
X023
X024
X025
T05
X02925Y00275
X03025
X03125
X03225
X03375Y00525
Y00625
Y01025
Y01125
X03125Y0135
X03025
X02925
X0295Y00925
Y00825
Y00725
X026055Y00998
Y01098
Y01198
X025055
Y01098
Y00998
T06
X0055Y001
X026Y003
Y014
X006Y02
M30
